# xmcd
#
# Track frame offsets: 
#        150
#        13011
#        30478
#        48255
#        68559
#        88682
#        107675
#        123142
#        139424
#        154076
#        171821
#        199701
#        227285
#        245367
#
# Disc length: 3520 seconds
#
# Revision: 2
# Processed by: cddbd v1.5.2PL0 Copyright (c) Steve Scherf et al.
# Submitted via: ExactAudioCopy v1.0b3
#
DISCID=a80dbe0e
DTITLE=Solange - Sol-Angel And The Hooley St. Dreams
DYEAR=2008
DGENRE=Soul
TTITLE0=God Given Name
TTITLE1=T.O.N.Y.
TTITLE2=Dancing In The Dark
TTITLE3=Would've Been The One
TTITLE4=Sandcastle Disco
TTITLE5=I Decided - pt. 1
TTITLE6=Valentine's Day
TTITLE7=6 O'clock Blues
TTITLE8=Ode To Marvin
TTITLE9=I Told You So
TTITLE10=Cosmic Journey (feat. Bilal9
TTITLE11=This Bird
TTITLE12=I Decided - pt. 2
TTITLE13=Champagnechroniknightcap
EXTD=
EXTT0=
EXTT1=
EXTT2=
EXTT3=
EXTT4=
EXTT5=
EXTT6=
EXTT7=
EXTT8=
EXTT9=
EXTT10=
EXTT11=
EXTT12=
EXTT13=
PLAYORDER=
